#N canvas 291 116 921 594 10;
#X floatatom 455 125 5 0 0 0 - - -, f 5;
#X obj 456 167 osc~ 1;
#X obj 455 145 * 0.01;
#X obj 456 207 *~ 1;
#X floatatom 507 156 5 0 0 0 - - -, f 5;
#X obj 456 294 osc~;
#X obj 457 315 *~;
#X obj 155 147 vsl 15 128 0 1 0 0 empty empty empty 0 -9 0 10 -262144
-1 -1 0 1;
#X obj 254 138 hsl 128 15 0 1000 0 0 empty empty empty -2 -8 0 10 -262144
-1 -1 700 1;
#X obj 398 315 *~;
#X obj 121 147 vsl 15 128 0 1 0 0 empty empty empty 0 -9 0 10 -262144
-1 -1 6200 1;
#X obj 607 311 *~;
#X obj 182 146 vsl 15 128 0 1 0 0 empty empty empty 0 -9 0 10 -262144
-1 -1 0 1;
#X obj 458 376 dac~;
#N canvas 247 209 450 300 oscillo 0;
#X obj 222 123 snapshot~;
#X msg 230 73 stop;
#X msg 159 66 bang;
#X obj 109 176 nbx 5 14 -1e+37 1e+37 0 0 empty empty empty 0 -8 0 10
-262144 -1 -1 0 256;
#X obj 218 98 metro 100;
#X obj 95 59 inlet~;
#X obj 109 131 bng 15 250 50 0 empty empty empty 17 7 0 10 -262144
-1 -1;
#X obj 145 128 bng 15 250 50 0 empty empty empty 17 7 0 10 -262144
-1 -1;
#X connect 0 0 3 0;
#X connect 1 0 4 0;
#X connect 2 0 4 0;
#X connect 4 0 0 0;
#X connect 5 0 0 0;
#X connect 6 0 2 0;
#X connect 7 0 1 0;
#X coords 0 -1 1 1 60 107 1 100 100;
#X restore 797 416 pd oscillo;
#N canvas 247 209 450 300 oscillo 0;
#X obj 222 123 snapshot~;
#X msg 230 73 stop;
#X msg 159 66 bang;
#X obj 109 176 nbx 5 14 -1e+37 1e+37 0 0 empty empty empty 0 -8 0 10
-262144 -1 -1 0 256;
#X obj 218 98 metro 100;
#X obj 95 59 inlet~;
#X obj 109 131 bng 15 250 50 0 empty empty empty 17 7 0 10 -262144
-1 -1;
#X obj 145 128 bng 15 250 50 0 empty empty empty 17 7 0 10 -262144
-1 -1;
#X connect 0 0 3 0;
#X connect 1 0 4 0;
#X connect 2 0 4 0;
#X connect 4 0 0 0;
#X connect 5 0 0 0;
#X connect 6 0 2 0;
#X connect 7 0 1 0;
#X coords 0 -1 1 1 60 107 1 100 100;
#X restore 603 422 pd oscillo;
#N canvas 247 209 450 300 oscillo 0;
#X obj 222 123 snapshot~;
#X msg 230 73 stop;
#X msg 159 66 bang;
#X obj 109 176 nbx 5 14 -1e+37 1e+37 0 0 empty empty empty 0 -8 0 10
-262144 -1 -1 0 256;
#X obj 218 98 metro 100;
#X obj 95 59 inlet~;
#X obj 109 131 bng 15 250 50 0 empty empty empty 17 7 0 10 -262144
-1 -1;
#X obj 145 128 bng 15 250 50 0 empty empty empty 17 7 0 10 -262144
-1 -1;
#X connect 0 0 3 0;
#X connect 1 0 4 0;
#X connect 2 0 4 0;
#X connect 4 0 0 0;
#X connect 5 0 0 0;
#X connect 6 0 2 0;
#X connect 7 0 1 0;
#X coords 0 -1 1 1 60 107 1 100 100;
#X restore 696 422 pd oscillo;
#N canvas 247 209 450 300 oscillo 0;
#X obj 222 123 snapshot~;
#X msg 230 73 stop;
#X msg 159 66 bang;
#X obj 109 176 nbx 5 14 -1e+37 1e+37 0 0 empty empty empty 0 -8 0 10
-262144 -1 -1 0 256;
#X obj 218 98 metro 100;
#X obj 95 59 inlet~;
#X obj 109 131 bng 15 250 50 0 empty empty empty 17 7 0 10 -262144
-1 -1;
#X obj 145 128 bng 15 250 50 0 empty empty empty 17 7 0 10 -262144
-1 -1;
#X connect 0 0 3 0;
#X connect 1 0 4 0;
#X connect 2 0 4 0;
#X connect 4 0 0 0;
#X connect 5 0 0 0;
#X connect 6 0 2 0;
#X connect 7 0 1 0;
#X coords 0 -1 1 1 68 108 1 100 100;
#X restore 502 417 pd oscillo;
#N canvas 454 297 450 300 square 0;
#X obj 106 131 hsl 90 15 0 127 0 0 empty empty empty -2 -8 0 10 -262144
-1 -1 0 1;
#X obj 283 126 mtof;
#X obj 283 148 phasor~;
#X obj 283 170 expr~ $v1 > $v2;
#X floatatom 158 155 5 0 0 0 - - -, f 5;
#X obj 370 141 / 100;
#X obj 69 50 inlet;
#X obj 49 235 outlet~;
#X obj 218 43 inlet~;
#X msg 246 249 50;
#X obj 252 214 loadbang;
#X connect 0 0 1 0;
#X connect 1 0 2 0;
#X connect 2 0 3 0;
#X connect 3 0 7 0;
#X connect 4 0 5 0;
#X connect 5 0 3 1;
#X connect 6 0 0 0;
#X connect 8 0 2 0;
#X connect 9 0 4 0;
#X connect 10 0 9 0;
#X coords 0 -1 1 1 100 100 1 100 100;
#X restore 335 412 pd square;
#X obj 608 287 phasor~;
#X obj 253 173 hsl 128 15 0 1000 0 0 empty empty empty -2 -8 0 10 -262144
-1 -1 10300 1;
#X obj 798 7 bng 15 250 50 0 empty empty empty 17 7 0 10 -262144 -1
-1;
#X msg 742 35 0;
#X obj 742 7 bng 15 250 50 0 empty empty empty 17 7 0 10 -262144 -1
-1;
#X msg 798 35 3.14;
#X obj 629 12 bng 15 250 50 0 empty empty empty 17 7 0 10 -262144 -1
-1;
#X msg 629 40 -3.14;
#X obj 832 5 bng 15 250 50 0 empty empty empty 17 7 0 10 -262144 -1
-1;
#X obj 832 55 * 2;
#X obj 672 9 bng 15 250 50 0 empty empty empty 17 7 0 10 -262144 -1
-1;
#X msg 672 37 -3.14;
#X msg 832 33 3.14;
#N canvas 0 50 450 250 (subpatch) 0;
#X array oscille 1000 float 4;
#X coords 0 -1 999 1 200 100 1 0 0;
#X restore 171 295 graph;
#X obj 280 532 bng 15 250 50 0 empty empty empty 17 7 0 10 -262144
-1 -1;
#X obj 257 555 metro 100;
#X obj 311 524 hsl 128 15 0 500 0 0 empty empty empty -2 -8 0 10 -262144
-1 -1 0 1;
#X floatatom 318 542 5 0 0 0 - - -, f 5;
#X obj 629 62 * 2;
#X obj 710 7 bng 15 250 50 0 empty empty empty 17 7 0 10 -262144 -1
-1;
#X msg 710 35 -3.14;
#X obj 710 57 / 2;
#X obj 770 8 bng 15 250 50 0 empty empty empty 17 7 0 10 -262144 -1
-1;
#X msg 770 36 3.14;
#X obj 770 58 / 2;
#X obj 263 600 tabwrite~ oscille;
#X obj 771 109 bng 15 250 50 0 empty empty empty 17 7 0 10 -262144
-1 -1;
#X msg 686 136 0;
#X obj 691 109 bng 15 250 50 0 empty empty empty 17 7 0 10 -262144
-1 -1;
#X obj 743 110 bng 15 250 50 0 empty empty empty 17 7 0 10 -262144
-1 -1;
#X msg 744 138 90;
#X msg 771 137 180;
#X obj 747 191 *;
#X obj 783 201 / 360;
#X floatatom 747 213 5 0 0 0 - - -, f 5;
#X obj 716 108 bng 15 250 50 0 empty empty empty 17 7 0 10 -262144
-1 -1;
#X msg 716 136 45;
#X obj 455 248 +~ 440;
#X obj 799 111 bng 15 250 50 0 empty empty empty 17 7 0 10 -262144
-1 -1;
#X msg 799 139 235;
#X obj 828 110 bng 15 250 50 0 empty empty empty 17 7 0 10 -262144
-1 -1;
#X msg 828 138 270;
#X obj 855 109 bng 15 250 50 0 empty empty empty 17 7 0 10 -262144
-1 -1;
#X msg 855 137 315;
#X text 112 128 SQUARE OSC SAW;
#X text 250 122 LFO SPEED;
#X text 248 159 LFO DEPTH;
#X text 282 244 Trigger;
#X obj 381 243 bng 15 250 50 0 empty empty empty 17 7 0 10 -262144
-1 -1;
#X obj 336 242 bng 15 250 50 0 empty empty empty 17 7 0 10 -262144
-1 -1;
#X obj 359 243 bng 15 250 50 0 empty empty empty 17 7 0 10 -262144
-1 -1;
#X obj 223 485 loadbang;
#X obj 793 295 loadbang;
#X msg 793 317 1;
#X floatatom 793 339 5 0 0 0 - - -, f 5;
#X connect 0 0 2 0;
#X connect 1 0 3 0;
#X connect 1 0 15 0;
#X connect 2 0 1 0;
#X connect 3 0 16 0;
#X connect 3 0 56 0;
#X connect 4 0 3 1;
#X connect 5 0 6 0;
#X connect 6 0 13 0;
#X connect 6 0 13 1;
#X connect 6 0 44 0;
#X connect 7 0 6 1;
#X connect 8 0 0 0;
#X connect 9 0 13 0;
#X connect 9 0 13 1;
#X connect 9 0 44 0;
#X connect 10 0 9 1;
#X connect 11 0 13 0;
#X connect 11 0 13 1;
#X connect 11 0 44 0;
#X connect 12 0 11 1;
#X connect 18 0 9 0;
#X connect 19 0 11 0;
#X connect 20 0 4 0;
#X connect 21 0 24 0;
#X connect 22 0 1 1;
#X connect 23 0 22 0;
#X connect 24 0 1 1;
#X connect 25 0 26 0;
#X connect 26 0 37 0;
#X connect 27 0 31 0;
#X connect 28 0 1 1;
#X connect 29 0 30 0;
#X connect 30 0 1 1;
#X connect 31 0 28 0;
#X connect 33 0 34 0;
#X connect 34 0 44 0;
#X connect 35 0 34 1;
#X connect 35 0 36 0;
#X connect 37 0 1 1;
#X connect 38 0 39 0;
#X connect 39 0 40 0;
#X connect 40 0 1 1;
#X connect 41 0 42 0;
#X connect 42 0 43 0;
#X connect 43 0 1 1;
#X connect 45 0 50 0;
#X connect 46 0 51 0;
#X connect 47 0 46 0;
#X connect 48 0 49 0;
#X connect 49 0 51 0;
#X connect 50 0 51 0;
#X connect 51 0 1 1;
#X connect 51 0 53 0;
#X connect 52 0 51 1;
#X connect 54 0 55 0;
#X connect 55 0 51 0;
#X connect 56 0 5 0;
#X connect 56 0 14 0;
#X connect 56 0 18 1;
#X connect 56 0 19 0;
#X connect 57 0 58 0;
#X connect 58 0 51 0;
#X connect 59 0 60 0;
#X connect 60 0 51 0;
#X connect 61 0 62 0;
#X connect 62 0 51 0;
#X connect 67 0 59 0;
#X connect 68 0 54 0;
#X connect 69 0 45 0;
#X connect 70 0 33 0;
#X connect 71 0 72 0;
#X connect 72 0 73 0;
#X connect 73 0 52 0;
#X coords 0 -1 1 1 300 300 1 100 100;
