#N canvas 2233 135 1280 810 10;
#X obj 483 131 osc~;
#X obj 482 176 *~;
#X obj 157 145 vsl 15 128 0 1 0 0 vol-sin empty empty 0 -9 0 10 -262144
-1 -1 0 1;
#X obj 256 141 hsl 128 15 0.1 200 0 0 rate empty empty -2 -8 0 10 -262144
-1 -1 1400 1;
#X obj 127 146 vsl 15 128 0 0.7 0 0 vol-square empty empty 0 -9 0 10
-262144 -1 -1 12700 1;
#X obj 657 171 *~;
#X obj 193 146 vsl 15 128 0 1 0 0 vol-saw empty empty 0 -9 0 10 -262144
-1 -1 0 1;
#X obj 657 130 phasor~;
#X obj 258 173 hsl 128 15 1 500 0 0 depth empty empty -2 -8 0 10 -262144
-1 -1 11100 1;
#N canvas 0 50 450 250 (subpatch) 0;
#X array oscille 1000 float 4;
#X coords 0 -1 999 1 200 100 1 0 0;
#X restore 171 295 graph;
#X text 112 128 SQUARE OSC SAW;
#X text 250 122 LFO SPEED;
#X obj 370 209 bng 15 250 50 0 empty empty empty 17 7 0 10 -262144
-1 -1;
#X obj 325 209 bng 15 250 50 0 empty empty empty 17 7 0 10 -262144
-1 -1;
#X obj 346 208 bng 15 250 50 0 empty empty empty 17 7 0 10 -262144
-1 -1;
#X obj 371 246 bng 15 250 50 0 empty empty empty 17 7 0 10 -262144
-1 -1;
#X obj 324 245 bng 15 250 50 0 empty empty empty 17 7 0 10 -262144
-1 -1;
#X obj 348 246 bng 15 250 50 0 empty empty empty 17 7 0 10 -262144
-1 -1;
#X text 271 248 Pitch;
#X text 360 123 Hz;
#X floatatom 315 123 10 0 0 0 - rate -, f 10;
#X text 249 157 LFO DEPTH;
#X obj 915 521 vsl 15 128 0 0.2 0 0 empty empty empty 0 -9 0 10 -262144
-1 -1 12700 1;
#X obj 855 591 *~;
#X floatatom 975 394 5 0 0 0 - - -, f 5;
#X msg 994 437 440;
#X msg 963 451 110;
#X obj 901 481 + 440;
#X obj 903 457 * 1;
#X obj 657 193 s~ saw;
#N canvas 1008 540 450 300 multiout 0;
#X obj 169 122 outlet~;
#X obj 116 2 r~ saw;
#X obj 118 21 r~ sin;
#X obj 266 39 r~ bi-saw;
#X obj 266 60 r~ bi-sin;
#X obj 267 19 r~ bi-square;
#X obj 97 -17 r~ square;
#X obj 97 51 *~;
#X obj 34 -18 key;
#X obj 34 4 select 81;
#X obj 34 27 bng 15 250 50 0 empty trigger empty 17 7 0 10 -262144
-1 -1;
#X obj -57 12 keypressed 113;
#X obj 9 52 tgl 15 0 empty empty empty 17 7 0 10 -262144 -1 -1 0 1
;
#X text -57 -17 q : shot Q : trigger;
#X obj 8 104 line~;
#X msg 9 73 \$1 50;
#X obj 319 126 r~ square-tone;
#X connect 1 0 7 0;
#X connect 2 0 7 0;
#X connect 3 0 0 0;
#X connect 4 0 0 0;
#X connect 5 0 0 0;
#X connect 6 0 7 0;
#X connect 7 0 0 0;
#X connect 8 0 9 0;
#X connect 9 0 10 0;
#X connect 10 0 12 0;
#X connect 11 0 12 0;
#X connect 12 0 15 0;
#X connect 14 0 7 1;
#X connect 15 0 14 0;
#X connect 16 0 0 0;
#X restore 179 423 pd multiout;
#X obj 970 588 *~;
#X obj 970 564 phasor~;
#X obj 1103 486 vsl 15 128 0 0.3 0 0 empty empty empty 0 -9 0 10 -262144
-1 -1 0 1;
#X obj 482 198 s~ sin;
#X obj 644 588 s~ bi-square;
#X obj 640 624 s~ bi-saw;
#X obj 796 528 vsl 15 128 0 0.3 0 0 empty empty empty 0 -9 0 10 -262144
-1 -1 0 1;
#X obj 736 598 *~;
#X obj 738 569 osc~;
#X obj 643 606 s~ bi-sin;
#X obj 884 392 squarewav;
#X msg 1031 436 880;
#X msg 1066 435 1500;
#X obj 561 133 square~;
#X obj 561 178 *~;
#X obj 561 199 s~ square;
#X obj 689 482 *~;
#X obj 649 353 hradio 15 1 0 4 empty empty empty 0 -8 0 10 -262144
-1 -1 3;
#X obj 644 435 del 500;
#X msg 633 400 500;
#X msg 661 400 1000;
#X msg 688 400 2000;
#X msg 719 400 4000;
#X obj 121 -7 hradio 15 1 0 3 empty empty empty 0 -8 0 10 -262144 -1
-1 1;
#X obj 125 76 unpack 0 0 0;
#X floatatom 917 673 5 0 0 0 - - -, f 5;
#X floatatom 796 664 5 0 0 0 - - -, f 5;
#X floatatom 1103 622 5 0 0 0 - - -, f 5;
#X msg 120 52 1 0 0;
#X msg 170 53 0 1 0;
#X msg 225 54 0 0 1;
#N canvas 591 221 450 300 oscille-table 0;
#X obj 10 16 inlet~;
#X obj 60 38 bng 15 250 50 0 empty empty empty 17 7 0 10 -262144 -1
-1;
#X obj 60 58 metro 100;
#X obj 111 125 hsl 50 15 0 500 0 0 empty empty empty -2 -8 0 10 -262144
-1 -1 0 1;
#X floatatom 108 143 5 0 0 0 - - -, f 5;
#X obj 60 78 tabwrite~ oscille;
#X obj 60 17 loadbang;
#X text 145 143 ms;
#X msg 83 39 100;
#X connect 0 0 5 0;
#X connect 1 0 2 0;
#X connect 2 0 5 0;
#X connect 3 0 2 1;
#X connect 3 0 4 0;
#X connect 6 0 1 0;
#X connect 6 0 8 0;
#X connect 8 0 4 0;
#X coords 0 -1 1 1 85 60 1 100 100;
#X restore 66 549 pd oscille-table;
#X obj 121 23 sel 0 1 2 3;
#X obj 649 376 sel 0 1 2 3;
#X obj 760 408 bng 50 250 50 0 empty empty empty 17 7 0 10 -258113
-1 -1;
#X text 242 201 TRIGGER;
#X obj 250 218 bng 30 250 50 0 trigger empty empty 17 7 0 10 -257985
-1 -1;
#X obj 757 290 keypressed 97;
#X obj 83 -27 loadbang;
#X obj 757 362 line~;
#X msg 757 340 \$1 10;
#X obj 886 435 line;
#X obj 726 463 tgl 15 0 empty empty empty 17 7 0 10 -262144 -1 -1 0
1;
#X obj 497 152 r vol-sin;
#X obj 504 7 r rate;
#X obj 554 7 r depth;
#X obj 576 155 r vol-square;
#X obj 855 560 square~;
#X obj 670 151 r vol-saw;
#X obj 897 328 r rate;
#X obj 979 333 r depth;
#X msg 442 269 440;
#X msg 469 270 880;
#X msg 497 271 1720;
#X obj 781 17 bng 15 250 50 0 empty empty empty 17 7 0 10 -262144 -1
-1;
#X msg 696 44 0;
#X obj 701 17 bng 15 250 50 0 empty empty empty 17 7 0 10 -262144 -1
-1;
#X obj 753 18 bng 15 250 50 0 empty empty empty 17 7 0 10 -262144 -1
-1;
#X msg 754 46 90;
#X msg 781 45 180;
#X floatatom 757 121 5 0 0 0 - - -, f 5;
#X obj 726 16 bng 15 250 50 0 empty empty empty 17 7 0 10 -262144 -1
-1;
#X msg 726 44 45;
#X obj 809 19 bng 15 250 50 0 empty empty empty 17 7 0 10 -262144 -1
-1;
#X msg 809 47 235;
#X obj 838 18 bng 15 250 50 0 empty empty empty 17 7 0 10 -262144 -1
-1;
#X msg 838 46 270;
#X obj 865 17 bng 15 250 50 0 empty empty empty 17 7 0 10 -262144 -1
-1;
#X msg 865 45 315;
#X obj 757 99 / 360;
#X msg 409 269 110;
#X floatatom 313 158 8 0 0 0 - depth -, f 8;
#X obj 470 72 lfo-phasor;
#X obj 557 70 lfo-osc;
#X obj 273 -7 hradio 15 1 0 3 empty empty empty 0 -8 0 10 -262144 -1
-1 1;
#X obj 277 76 unpack 0 0 0;
#X msg 272 52 1 0 0;
#X msg 322 53 0 1 0;
#X msg 377 54 0 0 1;
#X obj 273 23 sel 0 1 2 3;
#X obj 470 94 *~;
#X obj 557 92 *~;
#X obj 757 311 t f f;
#X text 758 274 A;
#X obj 401 577 *~ 0.6;
#X obj 228 450 hsl 128 15 1 30 0 0 empty empty empty -2 -8 0 10 -262144
-1 -1 0 1;
#X obj 238 700 dac~;
#X obj 487 521 hsl 128 15 0 0.8 0 0 empty empty empty -2 -8 0 10 -262144
-1 -1 11900 1;
#X text 481 503 Feedback;
#X obj 480 446 keypressed 100;
#X text 497 425 d;
#X floatatom 484 541 5 0 0 0 - - -, f 5;
#X obj 480 487 line;
#X obj 246 500 clip~ -0.5 0.5;
#X obj 226 470 *~;
#X obj 993 139 line~;
#X msg 993 117 \$1 10;
#X obj 993 75 keypressed 101;
#X obj 902 194 osc~;
#X obj 991 169 r rate;
#X obj 991 191 phasor~ 440;
#X obj 991 213 expr~ $v1 > 0.5;
#X obj 998 257 line~;
#X msg 998 235 \$1 10;
#X obj 1067 311 snapshot~;
#X obj 1078 259 loadbang;
#X obj 1078 280 metro 5;
#X obj 1163 284 bng 15 250 50 0 empty empty empty 17 7 0 10 -262144
-1 -1;
#X obj 925 258 *~;
#X obj 926 230 *~;
#X obj 925 280 *~;
#X obj 925 302 s~ square-tone;
#X obj 1156 15 key;
#X floatatom 1156 37 5 0 0 0 - - -, f 5;
#X msg 1081 155 0;
#X obj 993 96 t f b;
#X obj 435 635 hsl 128 15 0 1000 0 0 empty empty empty -2 -8 0 10 -262144
-1 -1 3600 1;
#X obj 242 603 *~;
#X obj 62 623 hsl 128 15 0 1 0 0 empty empty empty -2 -8 0 10 -262144
-1 -1 0 1;
#X obj 70 703 -;
#X msg 61 677 1;
#X text 98 637 DRY / WET;
#X obj 275 521 *~;
#X floatatom 70 725 5 0 0 0 - - -, f 5;
#X obj 304 552 delwrite~ delayname 500;
#X floatatom 30 724 5 0 0 0 - - -, f 5;
#X obj 321 601 delread~ delayname 150;
#X obj 885 263 tgl 15 0 empty empty empty 17 7 0 10 -262144 -1 -1 1
1;
#X floatatom 432 655 5 0 0 0 - - -, f 5;
#X msg 480 468 \$1 200;
#X msg 886 413 \$1 10;
#X connect 0 0 1 0;
#X connect 1 0 34 0;
#X connect 5 0 29 0;
#X connect 7 0 5 0;
#X connect 12 0 96 0;
#X connect 13 0 87 0;
#X connect 14 0 85 0;
#X connect 15 0 84 0;
#X connect 16 0 82 0;
#X connect 16 0 25 0;
#X connect 17 0 83 0;
#X connect 17 0 42 0;
#X connect 22 0 23 1;
#X connect 22 0 56 0;
#X connect 23 0 47 0;
#X connect 24 0 28 1;
#X connect 25 0 27 1;
#X connect 26 0 27 1;
#X connect 27 0 32 0;
#X connect 27 0 39 0;
#X connect 27 0 78 0;
#X connect 28 0 27 0;
#X connect 30 0 62 0;
#X connect 30 0 125 0;
#X connect 31 0 47 0;
#X connect 32 0 31 0;
#X connect 33 0 31 1;
#X connect 33 0 58 0;
#X connect 37 0 38 1;
#X connect 37 0 57 0;
#X connect 38 0 47 0;
#X connect 39 0 38 0;
#X connect 41 0 161 0;
#X connect 42 0 27 1;
#X connect 43 0 27 1;
#X connect 44 0 45 0;
#X connect 45 0 46 0;
#X connect 47 0 35 0;
#X connect 47 0 40 0;
#X connect 47 0 36 0;
#X connect 48 0 64 0;
#X connect 49 0 73 0;
#X connect 50 0 49 1;
#X connect 51 0 49 1;
#X connect 52 0 49 1;
#X connect 53 0 49 1;
#X connect 54 0 63 0;
#X connect 55 0 37 0;
#X connect 55 0 2 0;
#X connect 55 1 22 0;
#X connect 55 1 4 0;
#X connect 55 2 33 0;
#X connect 55 2 6 0;
#X connect 59 0 55 0;
#X connect 60 0 55 0;
#X connect 61 0 55 0;
#X connect 63 0 59 0;
#X connect 63 1 60 0;
#X connect 63 2 61 0;
#X connect 64 0 50 0;
#X connect 64 1 51 0;
#X connect 64 2 52 0;
#X connect 64 3 53 0;
#X connect 65 0 49 0;
#X connect 65 0 73 0;
#X connect 68 0 113 0;
#X connect 69 0 59 0;
#X connect 69 0 107 0;
#X connect 70 0 47 1;
#X connect 71 0 70 0;
#X connect 72 0 28 0;
#X connect 73 0 71 0;
#X connect 74 0 1 1;
#X connect 75 0 103 0;
#X connect 75 0 104 0;
#X connect 76 0 103 1;
#X connect 76 0 104 1;
#X connect 77 0 45 1;
#X connect 78 0 23 0;
#X connect 79 0 5 1;
#X connect 80 0 41 1;
#X connect 81 0 24 0;
#X connect 82 0 103 2;
#X connect 82 0 104 2;
#X connect 82 0 129 0;
#X connect 83 0 103 2;
#X connect 83 0 104 2;
#X connect 83 0 129 0;
#X connect 84 0 104 2;
#X connect 84 0 103 2;
#X connect 84 0 129 0;
#X connect 85 0 90 0;
#X connect 86 0 100 0;
#X connect 87 0 86 0;
#X connect 88 0 89 0;
#X connect 89 0 100 0;
#X connect 90 0 100 0;
#X connect 91 0 103 3;
#X connect 91 0 104 3;
#X connect 92 0 93 0;
#X connect 93 0 100 0;
#X connect 94 0 95 0;
#X connect 95 0 100 0;
#X connect 96 0 97 0;
#X connect 97 0 100 0;
#X connect 98 0 99 0;
#X connect 99 0 100 0;
#X connect 100 0 91 0;
#X connect 101 0 103 2;
#X connect 101 0 104 2;
#X connect 101 0 129 0;
#X connect 103 0 111 0;
#X connect 104 0 112 0;
#X connect 105 0 110 0;
#X connect 106 0 111 1;
#X connect 106 1 112 1;
#X connect 107 0 106 0;
#X connect 108 0 106 0;
#X connect 109 0 106 0;
#X connect 110 0 107 0;
#X connect 110 1 108 0;
#X connect 110 2 109 0;
#X connect 111 0 0 0;
#X connect 111 0 44 0;
#X connect 111 0 7 0;
#X connect 112 0 0 0;
#X connect 112 0 44 0;
#X connect 112 0 7 0;
#X connect 113 0 71 0;
#X connect 113 1 41 2;
#X connect 115 0 155 0;
#X connect 116 0 125 1;
#X connect 118 0 122 0;
#X connect 120 0 160 0;
#X connect 122 0 115 1;
#X connect 123 0 150 1;
#X connect 123 0 151 0;
#X connect 123 0 156 0;
#X connect 124 0 148 0;
#X connect 124 0 153 0;
#X connect 125 0 124 0;
#X connect 126 0 139 1;
#X connect 127 0 126 0;
#X connect 128 0 146 0;
#X connect 129 0 140 0;
#X connect 130 0 131 0;
#X connect 131 0 132 0;
#X connect 132 0 135 0;
#X connect 133 0 140 1;
#X connect 134 0 133 0;
#X connect 135 0 134 0;
#X connect 136 0 137 0;
#X connect 137 0 135 0;
#X connect 138 0 137 0;
#X connect 139 0 141 0;
#X connect 140 0 139 0;
#X connect 141 0 142 0;
#X connect 143 0 144 0;
#X connect 145 0 131 1;
#X connect 146 0 127 0;
#X connect 146 1 145 0;
#X connect 147 0 159 0;
#X connect 148 0 117 0;
#X connect 148 0 117 1;
#X connect 149 0 150 1;
#X connect 149 0 151 0;
#X connect 149 0 153 1;
#X connect 149 0 156 0;
#X connect 150 0 154 0;
#X connect 150 0 148 1;
#X connect 151 0 150 0;
#X connect 153 0 155 0;
#X connect 157 0 115 0;
#X connect 157 0 117 1;
#X connect 157 0 117 0;
#X connect 158 0 141 1;
#X connect 159 0 157 0;
#X connect 160 0 123 0;
#X connect 161 0 72 0;
#X coords 0 -1 1 1 300 300 1 100 100;
