#N canvas 1920 54 1920 1000 10;
#X floatatom 520 184 5 0 0 0 - - -, f 5;
#X obj 455 278 osc~;
#X obj 457 315 *~;
#X obj 155 147 vsl 15 128 0 1 0 0 empty empty empty 0 -9 0 10 -262144
-1 -1 0 1;
#X obj 256 141 hsl 128 15 1000 2 0 0 empty empty empty -2 -8 0 10 -262144
-1 -1 1000 1;
#X obj 414 321 *~;
#X obj 127 146 vsl 15 128 0 1 0 0 empty empty empty 0 -9 0 10 -262144
-1 -1 0 1;
#X obj 605 284 *~;
#X obj 193 146 vsl 15 128 0 1 0 0 empty empty empty 0 -9 0 10 -262144
-1 -1 10700 1;
#X obj 458 376 dac~;
#N canvas 245 210 450 300 oscillo 0;
#X obj 222 123 snapshot~;
#X msg 230 73 stop;
#X msg 159 66 bang;
#X obj 109 176 nbx 5 14 -1e+37 1e+37 0 0 empty empty empty 0 -8 0 10
-262144 -1 -1 1 256;
#X obj 218 98 metro 100;
#X obj 95 59 inlet~;
#X obj 109 131 bng 15 250 50 0 empty empty empty 17 7 0 10 -262144
-1 -1;
#X obj 145 128 bng 15 250 50 0 empty empty empty 17 7 0 10 -262144
-1 -1;
#X obj 333 246 outlet;
#X connect 0 0 3 0;
#X connect 1 0 4 0;
#X connect 2 0 4 0;
#X connect 3 0 8 0;
#X connect 4 0 0 0;
#X connect 5 0 0 0;
#X connect 6 0 2 0;
#X connect 7 0 1 0;
#X coords 0 -1 1 1 68 108 1 100 100;
#X restore 64 698 pd oscillo;
#N canvas 452 298 450 300 square 0;
#X obj 106 131 hsl 90 15 0 127 0 0 empty empty empty -2 -8 0 10 -262144
-1 -1 0 1;
#X obj 283 126 mtof;
#X obj 283 148 phasor~;
#X obj 283 170 expr~ $v1 > $v2;
#X floatatom 158 155 5 0 0 0 - - -, f 5;
#X obj 370 141 / 100;
#X obj 69 50 inlet;
#X obj 49 235 outlet~;
#X obj 218 43 inlet~;
#X msg 246 249 50;
#X obj 252 214 loadbang;
#X connect 0 0 1 0;
#X connect 1 0 2 0;
#X connect 2 0 3 0;
#X connect 3 0 7 0;
#X connect 4 0 5 0;
#X connect 5 0 3 1;
#X connect 6 0 0 0;
#X connect 8 0 2 0;
#X connect 9 0 4 0;
#X connect 10 0 9 0;
#X coords 0 -1 1 1 100 100 1 100 100;
#X restore 474 424 pd square;
#X obj 605 260 phasor~;
#X obj 253 173 hsl 128 15 0 1000 0 0 empty empty empty -2 -8 0 10 -262144
-1 -1 1300 1;
#X obj 798 7 bng 15 250 50 0 empty empty empty 17 7 0 10 -262144 -1
-1;
#X msg 742 35 0;
#X obj 742 7 bng 15 250 50 0 empty empty empty 17 7 0 10 -262144 -1
-1;
#X msg 798 35 3.14;
#X obj 629 12 bng 15 250 50 0 empty empty empty 17 7 0 10 -262144 -1
-1;
#X msg 629 40 -3.14;
#X obj 832 5 bng 15 250 50 0 empty empty empty 17 7 0 10 -262144 -1
-1;
#X obj 832 55 * 2;
#X obj 672 9 bng 15 250 50 0 empty empty empty 17 7 0 10 -262144 -1
-1;
#X msg 672 37 -3.14;
#X msg 832 33 3.14;
#N canvas 0 50 450 250 (subpatch) 0;
#X array oscille 1000 float 4;
#X coords 0 -1 999 1 200 100 1 0 0;
#X restore 171 295 graph;
#X obj 280 532 bng 15 250 50 0 empty empty empty 17 7 0 10 -262144
-1 -1;
#X obj 257 555 metro 100;
#X obj 311 524 hsl 128 15 0 500 0 0 empty empty empty -2 -8 0 10 -262144
-1 -1 2600 1;
#X floatatom 318 542 5 0 0 0 - - -, f 5;
#X obj 629 62 * 2;
#X obj 710 7 bng 15 250 50 0 empty empty empty 17 7 0 10 -262144 -1
-1;
#X msg 710 35 -3.14;
#X obj 710 57 / 2;
#X obj 770 8 bng 15 250 50 0 empty empty empty 17 7 0 10 -262144 -1
-1;
#X msg 770 36 3.14;
#X obj 770 58 / 2;
#X obj 263 600 tabwrite~ oscille;
#X obj 771 109 bng 15 250 50 0 empty empty empty 17 7 0 10 -262144
-1 -1;
#X msg 686 136 0;
#X obj 691 109 bng 15 250 50 0 empty empty empty 17 7 0 10 -262144
-1 -1;
#X obj 743 110 bng 15 250 50 0 empty empty empty 17 7 0 10 -262144
-1 -1;
#X msg 744 138 90;
#X msg 771 137 180;
#X obj 747 191 *;
#X obj 783 201 / 360;
#X floatatom 747 213 5 0 0 0 - - -, f 5;
#X obj 716 108 bng 15 250 50 0 empty empty empty 17 7 0 10 -262144
-1 -1;
#X msg 716 136 45;
#X obj 799 111 bng 15 250 50 0 empty empty empty 17 7 0 10 -262144
-1 -1;
#X msg 799 139 235;
#X obj 828 110 bng 15 250 50 0 empty empty empty 17 7 0 10 -262144
-1 -1;
#X msg 828 138 270;
#X obj 855 109 bng 15 250 50 0 empty empty empty 17 7 0 10 -262144
-1 -1;
#X msg 855 137 315;
#X text 112 128 SQUARE OSC SAW;
#X text 250 122 LFO SPEED;
#X text 271 211 Trigger;
#X obj 370 209 bng 15 250 50 0 empty empty empty 17 7 0 10 -262144
-1 -1;
#X obj 325 209 bng 15 250 50 0 empty empty empty 17 7 0 10 -262144
-1 -1;
#X obj 348 209 bng 15 250 50 0 empty empty empty 17 7 0 10 -262144
-1 -1;
#X obj 223 485 loadbang;
#X obj 793 295 loadbang;
#X msg 793 317 1;
#X floatatom 793 339 5 0 0 0 - - -, f 5;
#X obj 371 246 bng 15 250 50 0 empty empty empty 17 7 0 10 -262144
-1 -1;
#X obj 325 246 bng 15 250 50 0 empty empty empty 17 7 0 10 -262144
-1 -1;
#X obj 348 246 bng 15 250 50 0 empty empty empty 17 7 0 10 -262144
-1 -1;
#X msg 549 204 440;
#X msg 586 203 880;
#X msg 512 204 110;
#X text 271 248 Pitch;
#X obj 42 602 *~;
#X obj 216 147 vsl 15 128 0 1 0 0 empty empty empty 0 -9 0 10 -262144
-1 -1 0 1;
#X obj 129 676 phasor~;
#X floatatom 313 643 5 0 0 0 - - -, f 5;
#X obj 314 663 / 100;
#X obj 174 638 hsl 128 15 0 100000 0 0 empty empty empty -2 -8 0 10
-262144 -1 -1 11600 1;
#X obj 47 533 osc~ 440;
#X obj 51 573 *~, f 2;
#X obj 128 699 expr~ $v1 <= $v2;
#X text 361 118 Hz;
#N canvas 247 209 450 300 oscillo 0;
#X obj 222 123 snapshot~;
#X msg 230 73 stop;
#X msg 159 66 bang;
#X obj 109 176 nbx 5 14 -1e+37 1e+37 0 0 empty empty empty 0 -8 0 10
-262144 -1 -1 409.052 256;
#X obj 218 98 metro 100;
#X obj 95 59 inlet~;
#X obj 109 131 bng 15 250 50 0 empty empty empty 17 7 0 10 -262144
-1 -1;
#X obj 145 128 bng 15 250 50 0 empty empty empty 17 7 0 10 -262144
-1 -1;
#X connect 0 0 3 0;
#X connect 1 0 4 0;
#X connect 2 0 4 0;
#X connect 4 0 0 0;
#X connect 5 0 0 0;
#X connect 6 0 2 0;
#X connect 7 0 1 0;
#X coords 0 -1 1 1 60 107 1 100 100;
#X restore 797 416 pd oscillo;
#N canvas 245 210 450 300 oscillo 0;
#X obj 222 123 snapshot~;
#X msg 230 73 stop;
#X msg 159 66 bang;
#X obj 109 176 nbx 5 14 -1e+37 1e+37 0 0 empty empty empty 0 -8 0 10
-262144 -1 -1 0 256;
#X obj 218 98 metro 100;
#X obj 95 59 inlet~;
#X obj 109 131 bng 15 250 50 0 empty empty empty 17 7 0 10 -262144
-1 -1;
#X obj 145 128 bng 15 250 50 0 empty empty empty 17 7 0 10 -262144
-1 -1;
#X obj 125 242 outlet;
#X connect 0 0 3 0;
#X connect 1 0 4 0;
#X connect 2 0 4 0;
#X connect 3 0 8 0;
#X connect 4 0 0 0;
#X connect 5 0 0 0;
#X connect 6 0 2 0;
#X connect 7 0 1 0;
#X coords 0 -1 1 1 60 107 1 100 100;
#X restore 603 422 pd oscillo;
#N canvas 247 209 450 300 oscillo 0;
#X obj 222 123 snapshot~;
#X msg 230 73 stop;
#X msg 159 66 bang;
#X obj 109 176 nbx 5 14 -1e+37 1e+37 0 0 empty empty empty 0 -8 0 10
-262144 -1 -1 -39.8357 256;
#X obj 218 98 metro 100;
#X obj 95 59 inlet~;
#X obj 109 131 bng 15 250 50 0 empty empty empty 17 7 0 10 -262144
-1 -1;
#X obj 145 128 bng 15 250 50 0 empty empty empty 17 7 0 10 -262144
-1 -1;
#X connect 0 0 3 0;
#X connect 1 0 4 0;
#X connect 2 0 4 0;
#X connect 4 0 0 0;
#X connect 5 0 0 0;
#X connect 6 0 2 0;
#X connect 7 0 1 0;
#X coords 0 -1 1 1 60 107 1 100 100;
#X restore 696 422 pd oscillo;
#X obj 748 634 spigot;
#X floatatom 620 655 5 0 0 0 - - -, f 5;
#X obj 572 602 moses 0.9;
#X floatatom 502 656 5 0 0 0 - - -, f 5;
#X obj 495 602 moses -0.9;
#X obj 1134 221 line 250;
#X obj 1213 222 line 250;
#X floatatom 1137 331 5 0 0 0 - - -, f 5;
#X msg 1135 143 921.417;
#X msg 1212 138 921.417;
#X obj 1134 193 spigot;
#X obj 1213 192 spigot;
#X msg 1134 166 -1 \, 1 \$1;
#X msg 1213 161 1 \, -1 \$1;
#X obj 1134 275 sel 1;
#X obj 1214 277 sel -1;
#X msg 1135 105 set \$1;
#X obj 1139 71 hsl 128 15 2 1000 1 0 empty empty empty -2 -8 0 10 -262144
-1 -1 12700 1;
#X obj 1342 85 tgl 15 0 empty empty empty 17 7 0 10 -262144 -1 -1 1
1;
#X floatatom 321 121 5 0 0 0 - - -, f 5;
#X floatatom 1154 53 5 0 0 0 - - -, f 5;
#X text 249 157 LFO DEPTH;
#X obj 302 767 max;
#N canvas 245 210 450 300 oscillo 0;
#X obj 222 123 snapshot~;
#X msg 230 73 stop;
#X msg 159 66 bang;
#X obj 109 176 nbx 5 14 -1e+37 1e+37 0 0 empty empty empty 0 -8 0 10
-262144 -1 -1 0.409111 256;
#X obj 218 98 metro 100;
#X obj 95 59 inlet~;
#X obj 109 131 bng 15 250 50 0 empty empty empty 17 7 0 10 -262144
-1 -1;
#X obj 145 128 bng 15 250 50 0 empty empty empty 17 7 0 10 -262144
-1 -1;
#X obj 333 246 outlet;
#X connect 0 0 3 0;
#X connect 1 0 4 0;
#X connect 2 0 4 0;
#X connect 3 0 8 0;
#X connect 4 0 0 0;
#X connect 5 0 0 0;
#X connect 6 0 2 0;
#X connect 7 0 1 0;
#X coords 0 -1 1 1 68 108 1 100 100;
#X restore 236 745 pd oscillo;
#X floatatom 336 809 5 0 0 0 - - -, f 5;
#X obj 349 849 / 2;
#X obj 64 811 sel 0 1;
#X obj 109 901 line;
#X msg 65 855 1 \, 0 100;
#X msg 127 864 0 \, 1 100;
#X obj 1092 672 square~;
#X obj 1204 634 vsl 15 128 0 1 0 0 empty empty empty 0 -9 0 10 -262144
-1 -1 0 1;
#X obj 1090 700 *~;
#X obj 781 784 phasor~;
#X obj 459 218 * 1;
#X obj 456 248 + 440;
#X floatatom 338 46 5 0 0 0 - - -, f 5;
#X obj 338 65 /;
#X msg 338 24 1000;
#X floatatom 1200 527 5 0 0 0 - - -, f 5;
#X msg 1229 547 440;
#X msg 1266 546 880;
#X msg 1192 547 110;
#N canvas 243 211 450 300 oscillo 0;
#X obj 222 123 snapshot~;
#X msg 230 73 stop;
#X msg 159 66 bang;
#X obj 109 176 nbx 5 14 -1e+37 1e+37 0 0 empty empty empty 0 -8 0 10
-262144 -1 -1 1 256;
#X obj 95 59 inlet~;
#X obj 109 131 bng 15 250 50 0 empty empty empty 17 7 0 10 -262144
-1 -1;
#X obj 145 128 bng 15 250 50 0 empty empty empty 17 7 0 10 -262144
-1 -1;
#X obj 333 246 outlet;
#X obj 218 98 metro 5;
#X connect 0 0 3 0;
#X connect 1 0 8 0;
#X connect 2 0 8 0;
#X connect 3 0 7 0;
#X connect 4 0 0 0;
#X connect 5 0 2 0;
#X connect 6 0 1 0;
#X connect 8 0 0 0;
#X coords 0 -1 1 1 68 108 1 100 100;
#X restore 1320 598 pd oscillo;
#X obj 1387 567 square~;
#X obj 1136 591 + 440;
#X obj 1140 561 * 1;
#X obj 605 306 s~ saw;
#N canvas 2473 659 450 300 multiout 1;
#X obj 141 134 outlet~;
#X obj 115 93 r~ out;
#X obj 161 90 r~ saw;
#X obj 216 93 r~ saw2;
#X connect 1 0 0 0;
#X connect 2 0 0 0;
#X connect 3 0 0 0;
#X restore 509 338 pd multiout;
#X obj 1283 778 *~;
#X obj 1283 754 phasor~;
#X obj 1283 800 s~ saw2;
#X obj 1416 676 vsl 15 128 0 1 0 0 empty empty empty 0 -9 0 10 -262144
-1 -1 0 1;
#X connect 0 0 119 1;
#X connect 1 0 2 0;
#X connect 2 0 9 0;
#X connect 2 0 9 1;
#X connect 2 0 37 0;
#X connect 3 0 2 1;
#X connect 4 0 74 0;
#X connect 4 0 101 0;
#X connect 4 0 122 1;
#X connect 4 0 123 0;
#X connect 5 0 9 0;
#X connect 5 0 9 1;
#X connect 5 0 37 0;
#X connect 6 0 5 1;
#X connect 7 0 132 0;
#X connect 8 0 7 1;
#X connect 10 0 111 0;
#X connect 11 0 5 0;
#X connect 12 0 7 0;
#X connect 13 0 0 0;
#X connect 13 0 124 0;
#X connect 14 0 17 0;
#X connect 16 0 15 0;
#X connect 18 0 19 0;
#X connect 19 0 30 0;
#X connect 20 0 24 0;
#X connect 22 0 23 0;
#X connect 24 0 21 0;
#X connect 26 0 27 0;
#X connect 27 0 37 0;
#X connect 28 0 27 1;
#X connect 28 0 29 0;
#X connect 31 0 32 0;
#X connect 32 0 33 0;
#X connect 34 0 35 0;
#X connect 35 0 36 0;
#X connect 38 0 43 0;
#X connect 39 0 44 0;
#X connect 40 0 39 0;
#X connect 41 0 42 0;
#X connect 42 0 44 0;
#X connect 43 0 44 0;
#X connect 44 0 46 0;
#X connect 45 0 44 1;
#X connect 47 0 48 0;
#X connect 48 0 44 0;
#X connect 49 0 50 0;
#X connect 50 0 44 0;
#X connect 51 0 52 0;
#X connect 52 0 44 0;
#X connect 53 0 54 0;
#X connect 54 0 44 0;
#X connect 58 0 49 0;
#X connect 59 0 47 0;
#X connect 60 0 38 0;
#X connect 61 0 26 0;
#X connect 62 0 63 0;
#X connect 63 0 64 0;
#X connect 64 0 45 0;
#X connect 65 0 69 0;
#X connect 66 0 70 0;
#X connect 67 0 68 0;
#X connect 68 0 78 0;
#X connect 68 0 120 1;
#X connect 69 0 78 0;
#X connect 69 0 120 1;
#X connect 70 0 78 0;
#X connect 70 0 120 1;
#X connect 72 0 9 0;
#X connect 72 0 9 1;
#X connect 72 0 37 0;
#X connect 73 0 72 1;
#X connect 74 0 80 0;
#X connect 74 0 108 0;
#X connect 75 0 76 0;
#X connect 77 0 74 0;
#X connect 78 0 79 0;
#X connect 79 0 72 0;
#X connect 80 0 10 0;
#X connect 83 0 87 0;
#X connect 83 0 89 0;
#X connect 87 1 86 0;
#X connect 89 0 88 0;
#X connect 90 0 92 0;
#X connect 90 0 99 0;
#X connect 91 0 92 0;
#X connect 91 0 100 0;
#X connect 92 0 119 0;
#X connect 93 0 97 0;
#X connect 94 0 98 0;
#X connect 95 0 90 0;
#X connect 96 0 91 0;
#X connect 97 0 95 0;
#X connect 98 0 96 0;
#X connect 99 0 94 0;
#X connect 100 0 93 0;
#X connect 101 0 93 0;
#X connect 101 0 94 0;
#X connect 102 0 101 0;
#X connect 103 0 95 1;
#X connect 103 0 96 1;
#X connect 103 0 93 0;
#X connect 104 0 129 1;
#X connect 107 0 109 0;
#X connect 108 0 107 0;
#X connect 109 0 107 1;
#X connect 109 0 110 0;
#X connect 110 0 80 1;
#X connect 111 0 113 0;
#X connect 111 1 114 0;
#X connect 112 0 79 1;
#X connect 113 0 112 0;
#X connect 114 0 112 0;
#X connect 115 0 117 0;
#X connect 116 0 117 1;
#X connect 119 0 84 0;
#X connect 119 0 120 0;
#X connect 120 0 1 0;
#X connect 120 0 11 1;
#X connect 120 0 12 0;
#X connect 120 0 82 0;
#X connect 121 0 122 0;
#X connect 122 0 104 0;
#X connect 123 0 121 0;
#X connect 124 0 131 1;
#X connect 125 0 130 1;
#X connect 126 0 130 1;
#X connect 127 0 130 1;
#X connect 128 0 131 0;
#X connect 129 0 128 0;
#X connect 130 0 115 1;
#X connect 130 0 135 0;
#X connect 131 0 130 0;
#X connect 133 0 9 0;
#X connect 133 0 9 1;
#X connect 133 0 37 0;
#X connect 134 0 136 0;
#X connect 135 0 134 0;
#X connect 137 0 134 1;
#X coords 0 -1 1 1 300 300 1 100 100;
