#N canvas 15 69 1265 731 10;
#X floatatom 520 184 5 0 0 0 - - -, f 5;
#X obj 455 278 osc~;
#X obj 454 304 *~;
#X obj 155 147 vsl 15 128 0 1 0 0 empty empty empty 0 -9 0 10 -262144
-1 -1 0 1;
#X obj 256 141 hsl 128 15 20000 2 1 0 empty empty empty -2 -8 0 10
-262144 -1 -1 300 1;
#X obj 127 146 vsl 15 128 0 1 0 0 empty empty empty 0 -9 0 10 -262144
-1 -1 12700 1;
#X obj 605 284 *~;
#X obj 193 146 vsl 15 128 0 1 0 0 empty empty empty 0 -9 0 10 -262144
-1 -1 0 1;
#X obj 223 468 dac~;
#X obj 605 260 phasor~;
#X obj 253 173 hsl 128 15 200 20000 1 0 empty empty empty -2 -8 0 10
-262144 -1 -1 6200 1;
#N canvas 0 50 450 250 (subpatch) 0;
#X array oscille 1000 float 4;
#X coords 0 -1 999 1 200 100 1 0 0;
#X restore 171 295 graph;
#X text 112 128 SQUARE OSC SAW;
#X text 250 122 LFO SPEED;
#X obj 370 209 bng 15 250 50 0 empty empty empty 17 7 0 10 -262144
-1 -1;
#X obj 325 209 bng 15 250 50 0 empty empty empty 17 7 0 10 -262144
-1 -1;
#X obj 348 209 bng 15 250 50 0 empty empty empty 17 7 0 10 -262144
-1 -1;
#X obj 371 246 bng 15 250 50 0 empty empty empty 17 7 0 10 -262144
-1 -1;
#X obj 325 246 bng 15 250 50 0 empty empty empty 17 7 0 10 -262144
-1 -1;
#X obj 348 246 bng 15 250 50 0 empty empty empty 17 7 0 10 -262144
-1 -1;
#X msg 549 204 440;
#X msg 586 203 880;
#X msg 512 204 110;
#X text 271 248 Pitch;
#X obj 216 147 vsl 15 128 0 1 0 0 empty empty empty 0 -9 0 10 -262144
-1 -1 0 1;
#X text 361 118 Hz;
#X floatatom 321 121 5 0 0 0 - - -, f 5;
#X text 249 157 LFO DEPTH;
#X obj 915 521 vsl 15 128 0 0.3 0 0 empty empty empty 0 -9 0 10 -262144
-1 -1 0 1;
#X obj 855 591 *~;
#X obj 454 224 * 1;
#X obj 456 248 + 440;
#X floatatom 338 46 5 0 0 0 - - -, f 5;
#X obj 338 65 /;
#X msg 338 24 1000;
#X floatatom 975 394 5 0 0 0 - - -, f 5;
#X msg 994 437 440;
#X msg 957 437 110;
#X obj 901 481 + 440;
#X obj 903 457 * 1;
#X obj 605 306 s~ saw;
#N canvas 143 348 450 300 multiout 0;
#X obj 169 122 outlet~;
#X obj 116 2 r~ saw;
#X obj 118 21 r~ sin;
#X obj 266 39 r~ bi-saw;
#X obj 266 60 r~ bi-sin;
#X obj 267 19 r~ bi-square;
#X obj 97 -17 r~ square;
#X obj 97 51 *~;
#X obj 34 -18 key;
#X obj 34 4 select 81;
#X obj 34 27 bng 15 250 50 0 empty trigger empty 17 7 0 10 -262144
-1 -1;
#X obj -57 12 keypressed 113;
#X obj 9 52 tgl 15 0 empty empty empty 17 7 0 10 -262144 -1 -1 0 1
;
#X text -57 -17 q : shot Q : trigger;
#X obj 8 104 line~;
#X msg 9 73 \$1 50;
#X connect 1 0 7 0;
#X connect 2 0 7 0;
#X connect 3 0 0 0;
#X connect 4 0 0 0;
#X connect 5 0 0 0;
#X connect 6 0 7 0;
#X connect 7 0 0 0;
#X connect 8 0 9 0;
#X connect 9 0 10 0;
#X connect 10 0 12 0;
#X connect 11 0 12 0;
#X connect 12 0 15 0;
#X connect 14 0 7 1;
#X connect 15 0 14 0;
#X restore 179 423 pd multiout;
#X obj 970 588 *~;
#X obj 970 564 phasor~;
#X obj 1103 486 vsl 15 128 0 0.3 0 0 empty empty empty 0 -9 0 10 -262144
-1 -1 0 1;
#X obj 454 326 s~ sin;
#X obj 997 196 line 250;
#X obj 1076 197 line 250;
#X floatatom 1000 306 5 0 0 0 - - -, f 5;
#X msg 998 118 16089.5;
#X msg 1075 113 16089.5;
#X obj 997 168 spigot;
#X obj 1076 167 spigot;
#X msg 997 141 -1 \, 1 \$1;
#X msg 1076 136 1 \, -1 \$1;
#X obj 1009 251 sel 1;
#X obj 1077 252 sel -1;
#X msg 998 80 set \$1;
#X obj 1002 46 hsl 128 15 2 1000 1 0 empty empty empty -2 -8 0 10 -262144
-1 -1 0 1;
#X obj 1086 76 tgl 15 0 empty empty empty 17 7 0 10 -262144 -1 -1 1
1;
#X floatatom 947 16 5 0 0 0 - - -, f 5;
#X obj 644 588 s~ bi-square;
#X obj 640 624 s~ bi-saw;
#X obj 796 528 vsl 15 128 0 0.3 0 0 empty empty empty 0 -9 0 10 -262144
-1 -1 12700 1;
#X obj 736 598 *~;
#X obj 738 569 osc~;
#X obj 643 606 s~ bi-sin;
#X obj 884 392 squarewav;
#X msg 1031 436 880;
#X msg 1066 435 1500;
#X obj 509 415 square~;
#X obj 509 441 *~;
#X obj 509 462 s~ square;
#X msg 906 166 0 \, 1 5000;
#X msg 891 121 0 \, -1 5000;
#X obj 689 482 *~;
#X obj 649 353 hradio 15 1 0 4 empty empty empty 0 -8 0 10 -262144
-1 -1 0;
#X obj 644 435 del 500;
#X msg 633 400 500;
#X msg 661 400 1000;
#X msg 688 400 2000;
#X msg 719 400 4000;
#X obj 425 28 hradio 15 1 0 3 empty empty empty 0 -8 0 10 -262144 -1
-1 0;
#X obj 429 111 unpack 0 0 0;
#X floatatom 917 673 5 0 0 0 - - -, f 5;
#X floatatom 796 664 5 0 0 0 - - -, f 5;
#X floatatom 1103 622 5 0 0 0 - - -, f 5;
#X msg 424 87 1 0 0;
#X msg 474 88 0 1 0;
#X msg 529 89 0 0 1;
#N canvas 591 221 450 300 oscille-table 0;
#X obj 10 16 inlet~;
#X obj 60 38 bng 15 250 50 0 empty empty empty 17 7 0 10 -262144 -1
-1;
#X obj 60 58 metro 100;
#X obj 111 125 hsl 50 15 0 500 0 0 empty empty empty -2 -8 0 10 -262144
-1 -1 0 1;
#X floatatom 108 143 5 0 0 0 - - -, f 5;
#X obj 60 78 tabwrite~ oscille;
#X obj 60 17 loadbang;
#X text 145 143 ms;
#X msg 83 39 100;
#X connect 0 0 5 0;
#X connect 1 0 2 0;
#X connect 2 0 5 0;
#X connect 3 0 2 1;
#X connect 3 0 4 0;
#X connect 6 0 1 0;
#X connect 6 0 8 0;
#X connect 8 0 4 0;
#X coords 0 -1 1 1 85 60 1 100 100;
#X restore 100 456 pd oscille-table;
#X obj 425 58 sel 0 1 2 3;
#X obj 649 376 sel 0 1 2 3;
#X obj 760 408 bng 50 250 50 0 empty empty empty 17 7 0 10 -258113
-1 -1;
#X text 766 300 A;
#X text 242 201 TRIGGER;
#X obj 250 218 bng 30 250 50 0 trigger empty empty 17 7 0 10 -257985
-1 -1;
#X obj 757 318 keypressed 97;
#X obj 387 8 loadbang;
#X obj 855 560 square~;
#X obj 757 362 line~;
#X msg 757 340 \$1 10;
#X obj 886 435 line;
#X msg 886 413 \$1 10;
#X obj 726 463 tgl 15 0 empty empty empty 17 7 0 10 -262144 -1 -1 0
1;
#X connect 0 0 30 1;
#X connect 1 0 2 0;
#X connect 2 0 45 0;
#X connect 3 0 2 1;
#X connect 4 0 33 1;
#X connect 4 0 34 0;
#X connect 4 0 57 0;
#X connect 5 0 71 1;
#X connect 6 0 40 0;
#X connect 7 0 6 1;
#X connect 9 0 6 0;
#X connect 10 0 0 0;
#X connect 10 0 35 0;
#X connect 17 0 21 0;
#X connect 18 0 22 0;
#X connect 19 0 20 0;
#X connect 20 0 31 1;
#X connect 21 0 31 1;
#X connect 22 0 31 1;
#X connect 26 0 67 1;
#X connect 28 0 29 1;
#X connect 28 0 84 0;
#X connect 29 0 75 0;
#X connect 30 0 31 0;
#X connect 31 0 1 0;
#X connect 31 0 9 0;
#X connect 31 0 70 1;
#X connect 32 0 33 0;
#X connect 33 0 26 0;
#X connect 34 0 32 0;
#X connect 35 0 39 1;
#X connect 36 0 38 1;
#X connect 37 0 38 1;
#X connect 38 0 43 0;
#X connect 38 0 65 0;
#X connect 38 0 99 1;
#X connect 39 0 38 0;
#X connect 41 0 8 0;
#X connect 41 0 8 1;
#X connect 41 0 90 0;
#X connect 42 0 75 0;
#X connect 43 0 42 0;
#X connect 44 0 42 1;
#X connect 44 0 86 0;
#X connect 46 0 48 0;
#X connect 46 0 55 0;
#X connect 47 0 48 0;
#X connect 47 0 56 0;
#X connect 48 0 30 0;
#X connect 49 0 53 0;
#X connect 50 0 54 0;
#X connect 51 0 46 0;
#X connect 52 0 47 0;
#X connect 53 0 51 0;
#X connect 54 0 52 0;
#X connect 55 0 50 0;
#X connect 56 0 49 0;
#X connect 57 0 49 0;
#X connect 57 0 50 0;
#X connect 58 0 57 0;
#X connect 59 0 51 1;
#X connect 59 0 52 1;
#X connect 59 0 49 0;
#X connect 60 0 57 0;
#X connect 63 0 64 1;
#X connect 63 0 85 0;
#X connect 64 0 75 0;
#X connect 65 0 64 0;
#X connect 67 0 103 0;
#X connect 68 0 38 1;
#X connect 69 0 38 1;
#X connect 70 0 71 0;
#X connect 71 0 72 0;
#X connect 73 0 51 0;
#X connect 74 0 52 0;
#X connect 75 0 61 0;
#X connect 75 0 66 0;
#X connect 75 0 62 0;
#X connect 76 0 92 0;
#X connect 77 0 104 0;
#X connect 78 0 77 1;
#X connect 79 0 77 1;
#X connect 80 0 77 1;
#X connect 81 0 77 1;
#X connect 82 0 91 0;
#X connect 83 0 63 0;
#X connect 83 0 5 0;
#X connect 83 1 28 0;
#X connect 83 1 3 0;
#X connect 83 2 44 0;
#X connect 83 2 7 0;
#X connect 87 0 83 0;
#X connect 88 0 83 0;
#X connect 89 0 83 0;
#X connect 91 0 87 0;
#X connect 91 1 88 0;
#X connect 91 2 89 0;
#X connect 92 0 78 0;
#X connect 92 1 79 0;
#X connect 92 2 80 0;
#X connect 92 3 81 0;
#X connect 93 0 77 0;
#X connect 93 0 104 0;
#X connect 97 0 101 0;
#X connect 98 0 87 0;
#X connect 99 0 29 0;
#X connect 100 0 75 1;
#X connect 101 0 100 0;
#X connect 102 0 39 0;
#X connect 103 0 102 0;
#X connect 104 0 101 0;
#X coords 0 -1 1 1 300 300 1 100 100;
