#N canvas 732 246 450 300 10;
#X floatatom -3636 63 5 0 0 0 - - -, f 5;
#X obj -3636 83 * 0.01;
#X obj -3635 145 *~ 1;
#X obj -3636 186 +~ 440;
#X obj -3597 37 inlet;
#X obj -3636 37 inlet;
#X text -3632 21 RATE;
#X text -3597 21 DEPTH;
#X obj -3516 36 inlet;
#X text -3518 17 PHASE;
#X obj -3556 37 inlet;
#X text -3558 19 PITCH;
#X obj -3637 210 outlet~;
#X obj -3635 105 phasor~;
#X connect 0 0 1 0;
#X connect 1 0 13 0;
#X connect 2 0 3 0;
#X connect 3 0 12 0;
#X connect 4 0 2 1;
#X connect 5 0 0 0;
#X connect 8 0 13 1;
#X connect 10 0 3 1;
#X connect 13 0 2 0;
