#N canvas 471 215 450 459 10;
#X obj 132 208 line 250;
#X obj 196 208 line 250;
#X floatatom 180 274 5 0 0 0 - - -, f 5;
#X msg 133 161 921.417;
#X msg 195 161 921.417;
#X msg 132 184 -1 \, 1 \$1;
#X msg 196 184 1 \, -1 \$1;
#X obj 153 231 sel 1;
#X obj 209 231 sel -1;
#X msg 172 138 set \$1;
#X obj 135 28 inlet;
#X text 79 57 Hz;
#X floatatom 45 57 5 0 0 0 - - -, f 5;
#X floatatom 139 73 5 0 0 0 - - -, f 5;
#X obj 139 92 /;
#X msg 139 51 1000;
#X obj 181 296 * 1;
#X obj 183 320 + 440;
#X floatatom 48 83 5 0 0 0 - - -, f 5;
#X obj 195 25 inlet;
#X text 11 56 Rate;
#X text 10 83 Depth;
#X obj 183 340 outlet;
#X floatatom 175 73 5 0 0 0 - - -, f 5;
#X obj 175 92 /;
#X msg 175 51 1000;
#X obj 259 25 inlet;
#X text 142 10 RATE;
#X text 195 7 DEPTH;
#X text 241 8 CENTER FREQ;
#X connect 0 0 2 0;
#X connect 0 0 7 0;
#X connect 1 0 2 0;
#X connect 1 0 8 0;
#X connect 2 0 16 0;
#X connect 3 0 5 0;
#X connect 4 0 6 0;
#X connect 5 0 0 0;
#X connect 6 0 1 0;
#X connect 7 0 4 0;
#X connect 8 0 3 0;
#X connect 9 0 3 0;
#X connect 9 0 4 0;
#X connect 10 0 9 0;
#X connect 10 0 14 1;
#X connect 10 0 15 0;
#X connect 12 0 24 1;
#X connect 12 0 25 0;
#X connect 13 0 14 0;
#X connect 14 0 12 0;
#X connect 15 0 13 0;
#X connect 16 0 17 0;
#X connect 17 0 22 0;
#X connect 18 0 16 1;
#X connect 19 0 18 0;
#X connect 23 0 24 0;
#X connect 24 0 9 0;
#X connect 25 0 23 0;
#X connect 26 0 17 1;
#X coords 0 -1 1 1 100 90 1 10 10;
