#N canvas 1257 373 450 300 10;
#X obj 38 74 phasor~ 440;
#X obj 38 96 expr~ $v1 > 0.5;
#X obj 38 118 *~ 2;
#X obj 38 140 -~ 1;
#X obj 38 31 inlet;
#X obj 38 53 mtof;
#X obj 85 31 inlet;
#X obj 24 179 outlet~;
#X connect 0 0 1 0;
#X connect 1 0 2 0;
#X connect 2 0 3 0;
#X connect 3 0 7 0;
#X connect 4 0 5 0;
#X connect 5 0 0 0;
#X connect 6 0 0 0;
