#N canvas 560 222 450 300 10;
#X obj 38 74 phasor~ 440;
#X obj 38 118 *~ 2;
#X obj 38 140 -~ 1;
#X obj 38 31 inlet;
#X obj 38 53 mtof;
#X obj 85 31 inlet;
#X obj 38 96 expr~ $v1 > 0.5;
#X obj 61 169 snapshot~;
#X obj 72 138 metro 100;
#X obj 72 117 loadbang;
#X obj 61 191 outlet;
#X connect 0 0 6 0;
#X connect 1 0 2 0;
#X connect 2 0 7 0;
#X connect 3 0 4 0;
#X connect 4 0 0 0;
#X connect 5 0 0 0;
#X connect 6 0 1 0;
#X connect 7 0 10 0;
#X connect 8 0 7 0;
#X connect 9 0 8 0;
